<?xml version="1.0" encoding="utf-8"?>
<!-- Generator: Adobe Illustrator 21.1.0, SVG Export Plug-In . SVG Version: 6.00 Build 0)  -->
<svg version="1.0" id="圖層_1" xmlns="http://www.w3.org/2000/svg" xmlns:xlink="http://www.w3.org/1999/xlink" x="0px" y="0px"
	 viewBox="0 0 1024 1024" style="enable-background:new 0 0 1024 1024;" xml:space="preserve">
<style type="text/css">
	.st0{clip-path:url(#SVGID_2_);fill:#E9443D;}
	.st1{fill:#FFFFFF;}
	.st2{fill:#E9443D;}
</style>
<g>
	<g>
		<defs>
			<rect id="SVGID_1_" x="0.1" y="0.1" width="1023.9" height="1023.9"/>
		</defs>
		<clipPath id="SVGID_2_">
			<use xlink:href="#SVGID_1_"  style="overflow:visible;"/>
		</clipPath>
		<path class="st0" d="M1023.9,512c0,282.8-229.2,512-511.9,512S0,794.8,0,512S229.1,0.1,511.9,0.1S1023.9,229.2,1023.9,512"/>
	</g>
</g>
<path class="st1" d="M745.9,248.6c-59.5-51.6-131.8-77.7-214.3-77.7c-82.5,0-154.5,25.9-214.1,77.1
	c-63.6,54.6-97.1,125.7-97.1,205.7v232c0,48.1,20.6,92.2,57.9,124.2c33,28.4,74.2,43.4,119.2,43.4c44.3,0,85.4-14.7,118.6-42.4
	c24.8-20.7,42.4-46.5,51.7-75.3c67.6-6.6,127.4-32.1,178.2-76c63.3-54.8,96.9-126,96.9-205.9C842.8,374.3,809.4,303.5,745.9,248.6"
	/>
<path class="st2" d="M674,331.8c-39.2-34-86.6-50.9-142.4-50.9s-103.2,16.8-142.4,50.5s-58.7,74.4-58.7,122.2v232
	c0,15.9,6.5,29.5,19.5,40.7c13.1,11.2,28.8,16.8,47.4,16.8c18.6,0,34.6-5.7,48-16.8c13.5-11.2,20.1-24.8,20.1-40.7v-58.5h66
	c55.6,0,103.2-17,142.4-50.9c39.2-34,58.7-74.8,58.7-122.6C732.7,406.4,713.2,365.7,674,331.8 M578.5,493.8
	c-12.8,10.9-28.4,16.4-46.9,16.4h-66v-56.7c0-15.4,6.5-28.6,19.5-39.9c13.1-11.2,28.6-16.8,46.5-16.8s33.4,5.7,46.5,16.8
	c13.1,11.2,19.5,24.5,19.5,39.9C597.6,469.6,591.3,482.9,578.5,493.8z"/>
</svg>
